<?xml version="1.0" encoding="iso-8859-1"?>
<!-- Generator: Adobe Illustrator 19.0.0, SVG Export Plug-In . SVG Version: 6.00 Build 0)  -->
<svg version="1.1" id="Capa_1" xmlns="http://www.w3.org/2000/svg" xmlns:xlink="http://www.w3.org/1999/xlink" x="0px" y="0px"
	 viewBox="0 0 512 512" style="enable-background:new 0 0 512 512;" xml:space="preserve">
<path style="fill:#466389;" d="M282.577,389.199v2.302c0,14.678-11.899,26.577-26.577,26.577l0,0
	c-14.678,0-26.577-11.899-26.577-26.577v-2.302H10v43.464c0,12.565,10.186,22.751,22.751,22.751h446.497
	c12.565,0,22.751-10.186,22.751-22.751v-43.464H282.577z"/>
<path style="fill:#757575;" d="M229.423,389.199v2.302c0,14.678,11.899,26.576,26.577,26.576c14.678,0,26.577-11.899,26.577-26.576
	v-2.302h30.467h163.153V56.586H35.804v332.613h163.152H229.423z"/>
<path style="fill:#FFECA1;" d="M229.423,389.199v2.302c0,14.678,11.899,26.576,26.577,26.576c14.678,0,26.577-11.899,26.577-26.576
	v-2.302h30.467h120.37V99.368H78.586v289.831h120.37L229.423,389.199L229.423,389.199z"/>
<path d="M388.02,142.22c-0.649,0-1.31-0.07-1.96-0.2c-0.63-0.13-1.26-0.319-1.87-0.569c-0.6-0.25-1.18-0.561-1.72-0.92
	c-0.55-0.36-1.06-0.78-1.52-1.24s-0.881-0.98-1.25-1.52c-0.36-0.54-0.67-1.12-0.92-1.73c-0.25-0.6-0.44-1.23-0.57-1.87
	s-0.19-1.3-0.19-1.95s0.061-1.309,0.19-1.96c0.13-0.63,0.32-1.26,0.57-1.87c0.25-0.6,0.56-1.18,0.92-1.72
	c0.369-0.55,0.79-1.061,1.25-1.521c0.46-0.46,0.97-0.88,1.52-1.25c0.54-0.359,1.12-0.67,1.72-0.92c0.61-0.25,1.24-0.439,1.87-0.569
	c1.29-0.261,2.62-0.261,3.91,0c0.64,0.13,1.271,0.319,1.87,0.569c0.61,0.25,1.19,0.561,1.729,0.92c0.551,0.37,1.061,0.79,1.521,1.25
	s0.88,0.971,1.24,1.521c0.359,0.54,0.67,1.12,0.92,1.72c0.25,0.61,0.44,1.24,0.569,1.87c0.131,0.65,0.2,1.31,0.2,1.96
	c0,0.65-0.069,1.311-0.2,1.95c-0.13,0.64-0.319,1.27-0.569,1.87c-0.25,0.609-0.56,1.19-0.92,1.73c-0.36,0.54-0.78,1.061-1.24,1.52
	c-0.46,0.46-0.97,0.88-1.521,1.24c-0.539,0.359-1.119,0.67-1.729,0.92c-0.6,0.25-1.23,0.439-1.87,0.569
	C389.33,142.149,388.67,142.22,388.02,142.22z"/>
<polygon style="fill:#FE5E47;" points="256,132.218 116.868,346.679 395.132,346.679 "/>
<path d="M502,379.199h-15.804V56.586c0-5.522-4.477-10-10-10H35.804c-5.522,0-10,4.478-10,10v322.613H10c-5.523,0-10,4.478-10,10
	v43.464c0,18.059,14.692,32.751,32.751,32.751h446.498c18.059,0,32.751-14.692,32.751-32.751v-43.464
	C512,383.677,507.522,379.199,502,379.199z M45.804,66.586h420.393v312.613h-22.782V99.368c0-5.522-4.478-10-10-10H78.586
	c-5.522,0-10,4.478-10,10v279.831H45.804V66.586z M282.577,379.199L282.577,379.199c-5.523,0-10.001,4.478-10.001,10v2.302
	c0,9.14-7.437,16.576-16.576,16.576c-9.14,0-16.576-7.436-16.576-16.576v-2.302c0-5.522-4.477-10-10-10h-0.001H88.586V142.218
	h149.006l-129.113,199.02c-1.994,3.075-2.147,6.995-0.397,10.216s5.122,5.227,8.787,5.227h278.264c3.665,0,7.037-2.006,8.787-5.227
	s1.597-7.141-0.397-10.216l-129.114-199.02h78.066c5.522,0,10-4.478,10-10c0-5.523-4.478-10-10-10H88.586v-12.85h334.828v269.831
	H282.577z M256,150.592L376.725,336.68h-241.45L256,150.592z M492,432.663c0,7.031-5.72,12.751-12.751,12.751H32.751
	c-7.031,0-12.751-5.72-12.751-12.751v-33.464l0,0h200.238l0,0c3.545,16.483,18.233,28.878,35.762,28.878
	s32.217-12.395,35.762-28.878H492l0,0l0,0V432.663z"/>
<path d="M226.265,289.021h-1.97v-4.163c0-3.245-3.085-5.342-7.861-5.342c-4.775,0-7.861,2.097-7.861,5.342v4.163h-3.002
	l13.318-26.718c0.276-0.642,0.531-1.345,0.531-2.145c0-4.087-5.193-6.317-7.861-6.317c-2.92,0-5.275,1.447-6.638,4.081
	l-18.748,36.767c-0.728,1.334-0.837,2.557-0.837,3.167c0,3.48,2.363,5.911,5.748,5.911h17.489v7.089
	c0,3.193,3.232,5.423,7.861,5.423s7.861-2.23,7.861-5.423v-7.089h1.97c3.104,0,5.424-3.893,5.424-7.373
	C231.689,292.053,229.459,289.021,226.265,289.021z"/>
<path d="M257.057,253.597c-13.818,0-21.429,7.351-21.429,20.698v21.53c0,13.347,7.611,20.698,21.429,20.698
	c13.871,0,21.51-7.351,21.51-20.698v-21.53C278.568,260.948,270.928,253.597,257.057,253.597z M251.35,274.295
	c0-5.918,3.257-6.602,5.707-6.602c3.949,0,5.789,2.098,5.789,6.602v21.53c0,4.504-1.84,6.601-5.789,6.601
	c-2.451,0-5.707-0.684-5.707-6.601V274.295z"/>
<path d="M321.24,288.777h-1.971v-4.163c0-3.245-3.085-5.343-7.861-5.343s-7.861,2.098-7.861,5.343v4.163h-3.002l13.318-26.718
	c0.276-0.642,0.531-1.345,0.531-2.145c0-4.087-5.193-6.317-7.861-6.317c-2.92,0-5.275,1.447-6.638,4.081l-18.748,36.767
	c-0.728,1.334-0.837,2.557-0.837,3.167c0,3.48,2.363,5.911,5.748,5.911h17.489v7.089c0,3.192,3.232,5.423,7.861,5.423
	c4.628,0,7.861-2.23,7.861-5.423v-7.089h1.971c3.104,0,5.423-3.893,5.423-7.373C326.663,291.809,324.432,288.777,321.24,288.777z"/>
<g>
</g>
<g>
</g>
<g>
</g>
<g>
</g>
<g>
</g>
<g>
</g>
<g>
</g>
<g>
</g>
<g>
</g>
<g>
</g>
<g>
</g>
<g>
</g>
<g>
</g>
<g>
</g>
<g>
</g>
</svg>
